PathFileType	4	(X/Y/Z)	C:/Users/beibeiliu/ov580/test_trc/User2\sequence.14_training_dense_right.trc
DataRate	CameraRate	NumFrames	NumMarkers	Units	OrigDataRate	OrigDataStartFrame	OrigNumFrames
120	120	10	19	mm	120	59	87
Frame#	Time	ThumbCMC			ThumbMCP			ThumbIP			ThumbTip			IndexMCP			IndexPIP			IndexTip			MiddleMCP			MiddlePIP			MiddleTip			RingMCP			RingPIP			RingTip			PinkyMCP			PinkyPIP			PinkyTip			BackHand1			BackHand2			BackHand3	
		X0	Y0	Z0	X1	Y1	Z1	X2	Y2	Z2	X3	Y3	Z3	X4	Y4	Z4	X5	Y5	Z5	X6	Y6	Z6	X7	Y7	Z7	X8	Y8	Z8	X9	Y9	Z9	X10	Y10	Z10	X11	Y11	Z11	X12	Y12	Z12	X13	Y13	Z13	X14	Y14	Z14	X15	Y15	Z15	X16	Y16	Z16	X17	Y17	Z17	X18	Y18	Z18	
58	0.483333	149.498	-12.7045	-39.5118	130.918	-17.5063	-68.8954	122.122	-14.4788	-102.638	134.874	-10.8779	-129.375	157.002	39.5015	-100.513	147.888	33.1851	-133.71	148.706	2.67337	-146.092	182.003	47.6124	-102.808	176.862	45.6339	-143.46	165.931	13.1636	-161.916	201.347	42.1193	-100.245	200.515	45.2291	-134.423	186.886	23.8862	-155.134	225.286	22.5595	-97.0514	220.506	28.9074	-128.74	207.984	15.0511	-153.681	212.846	13.5934	-50.4035	216.386	1.30224	-19.5555	179.529	15.4651	-30.39	
59	0.491667	146.531	-16.4128	-36.8407	125.086	-24.3074	-66.6118	125.153	-24.7583	-101.904	131.242	-26.7405	-126.174	149.274	29.2927	-104.127	147.017	18.8398	-135.001	149.916	-14.5905	-145.475	176.425	37.7645	-111.555	171.106	29.1403	-147.216	165.692	-3.8168	-161.409	200.261	32.4564	-106.741	196.298	29.8762	-139.694	185.894	1.85024	-155.978	221.825	12.9236	-97.352	218.767	14.5643	-130.526	203.55	-3.19473	-149.117	206.172	13.5952	-54.8735	211.312	3.46446	-19.2211	175.796	14.9087	-30.898	
60	0.5	138.625	-17.6405	-29.6215	126.181	-29.8383	-59.9558	118.844	-38.4697	-93.8042	126.436	-43.8379	-121.309	147.192	17.5591	-109.204	141.009	-2.63954	-136.12	142.188	-36.2643	-139.315	169.897	24.6372	-111.053	163.398	10.3056	-145.676	163.025	-31.8896	-155.321	195.295	20.3661	-113.192	190.863	8.92031	-140.352	180.77	-23.9991	-150.008	217.672	2.47269	-98.5795	207.365	-4.53147	-131.095	200.655	-27.5448	-144.888	203.257	13.0803	-52.7185	206.595	8.58224	-19.0146	169.507	17.7568	-34.2635	
61	0.508333	134.941	-13.1839	-26.6295	116.701	-34.1321	-49.0077	111.837	-48.2011	-83.1236	123.457	-55.643	-105.421	139.219	7.60626	-102.705	137.713	-17.4329	-129.264	134.59	-48.1993	-127.455	167.519	11.5581	-111.026	156.718	-9.91801	-143.03	152.648	-47.3365	-143.611	185.186	7.1656	-111.115	181.493	-8.0226	-136.65	172.586	-43.0328	-139.214	206.445	-5.83127	-100.058	202.898	-21.6318	-124.872	185.025	-51.0634	-132.862	197.657	11.5829	-53.2525	202.043	13.2897	-19.2153	161.73	19.8789	-31.9239	
62	0.516667	131.33	-2.08194	-20.3337	112.982	-24.886	-40.9256	103.568	-43.6751	-73.3032	109.898	-56.7157	-93.8486	137.542	3.43461	-100.514	129.911	-20.9068	-119.959	121.218	-55.1018	-115.017	161.006	3.35582	-115.624	148.247	-22.021	-136.148	140.747	-61.4346	-127.642	182.795	-5.49479	-109.515	168.046	-27.6358	-132.542	155.516	-61.1489	-122.891	202.319	-18.8809	-96.8286	186.911	-39.5408	-119.602	167.083	-63.9737	-115.835	195.537	10.4314	-51.2604	204.756	15.5896	-19.0071	164.685	23.5113	-34.6979	
63	0.525	131.536	11.2463	-21.7981	107.645	-8.31125	-38.7074	91.5401	-27.7955	-64.2849	95.3203	-47.4258	-87.2345	135.408	3.26813	-101.511	113.839	-20.1781	-116.858	106.456	-51.3656	-104.266	156.666	-5.11454	-113.024	137.972	-28.9712	-130.185	119.372	-64.5416	-111.832	174.765	-18.8417	-108.86	156.704	-41.1221	-125.653	136.048	-63.8963	-110.114	189.548	-33.7533	-95.4743	168.78	-49.934	-111.677	145.218	-70.7811	-104.103	196.114	3.48812	-58.4803	206.039	9.66787	-22.9936	168.325	26.6262	-38.8271	
64	0.533333	140.387	26.3926	-24.0009	105.796	14.0328	-44.2527	85.117	-4.23497	-62.2105	85.1934	-28.1555	-82.5907	133.285	8.51183	-105.972	105.281	-14.6459	-116.602	88.1294	-36.5729	-100.019	147.977	-9.70137	-115.634	122.954	-34.462	-126.011	95.7578	-50.3302	-103.444	162.21	-30.8809	-109.332	134.47	-52.1425	-120.101	110.995	-58.0192	-100.583	170.919	-46.2954	-93.5248	143.797	-61.7899	-105.048	118.328	-70.6227	-91.4529	193.603	-10.4494	-63.0426	207.622	-0.766793	-30.6049	178.741	24.0201	-46.1945	
65	0.541667	149.239	30.6622	-36.8945	116.975	23.9444	-52.5714	90.997	11.1737	-72.381	82.7694	-13.0976	-85.0157	138.843	-0.43057	-112.729	108.582	-18.2413	-120.595	83.5031	-26.074	-105.655	145.453	-27.3854	-120.287	113.88	-38.7426	-125.791	84.4671	-40.2119	-102.391	150.007	-43.5003	-110.805	121.002	-53.637	-117.913	93.2925	-49.6923	-95.4799	153.842	-60.4161	-91.0716	121.792	-69.7429	-97.3595	98.8728	-62.2815	-84.3303	189.808	-26.3877	-62.1781	203.829	-15.6526	-32.2673	187.521	10.6641	-57.736	
66	0.55	162.947	24.8855	-49.4835	131.5	25.9842	-65.8013	103.132	14.5654	-89.5476	91.2265	-8.41806	-96.4836	143.839	-18.6726	-120.225	115.491	-23.11	-131.199	82.7343	-21.2122	-112.919	146.938	-41.2531	-119.978	110.648	-46.6847	-129.285	80.3185	-36.3221	-103.334	143.375	-61.9361	-111.006	111.009	-63.6537	-117.445	87.843	-48.4733	-100.603	142.401	-73.7431	-86.315	113.379	-75.0251	-95.0739	85.2982	-60.5916	-82.8415	184.643	-48.3906	-64.7852	199.582	-36.944	-34.8838	193.03	-7.39024	-60.3054	
67	0.558333	178.778	15.0883	-60.5169	149.721	19.4725	-81.4962	122.596	7.85165	-103.021	103.753	-7.86185	-110.96	154.413	-36.0949	-125.54	124.102	-35.9656	-138.468	94.9247	-26.1757	-122.673	148.844	-56.138	-126.089	115.71	-57.9749	-134.084	87.6055	-38.9365	-114.995	145.694	-75.1179	-105.988	115.713	-73.7295	-120.639	90.2707	-51.9843	-108.822	136.39	-84.747	-81.097	105.214	-78.3331	-97.1984	84.1837	-60.6193	-91.1794	183.476	-60.2386	-60.8752	200.03	-52.3844	-31.2236	200.052	-24.0314	-67.5145	
